{
 "asset": {
  "version": "2.0",
  "generator": "WFM 3D demo"
 },
 "scene": 0,
 "scenes": [
  {
   "nodes": [
    0,
    1,
    2
   ]
  }
 ],
 "nodes": [
  {
   "name": "Body",
   "mesh": 0
  },
  {
   "name": "Port_1",
   "mesh": 1,
   "translation": [
    -0.22,
    0.6,
    0.35
   ],
   "scale": [
    0.26,
    0.22,
    0.26
   ]
  },
  {
   "name": "Port_2",
   "mesh": 2,
   "translation": [
    0.22,
    0.6,
    0.35
   ],
   "scale": [
    0.26,
    0.22,
    0.26
   ]
  }
 ],
 "materials": [
  {
   "name": "body",
   "pbrMetallicRoughness": {
    "baseColorFactor": [
     0.5,
     0.5,
     0.5,
     1.0
    ],
    "metallicFactor": 0.05,
    "roughnessFactor": 0.7
   }
  },
  {
   "name": "port1",
   "pbrMetallicRoughness": {
    "baseColorFactor": [
     1.0,
     0.886,
     0.478,
     1.0
    ],
    "metallicFactor": 0.05,
    "roughnessFactor": 0.7
   }
  },
  {
   "name": "port2",
   "pbrMetallicRoughness": {
    "baseColorFactor": [
     1.0,
     0.886,
     0.478,
     1.0
    ],
    "metallicFactor": 0.05,
    "roughnessFactor": 0.7
   }
  }
 ],
 "meshes": [
  {
   "name": "Body",
   "primitives": [
    {
     "attributes": {
      "POSITION": 0,
      "NORMAL": 1
     },
     "indices": 2,
     "material": 0
    }
   ]
  },
  {
   "name": "Port1",
   "primitives": [
    {
     "attributes": {
      "POSITION": 0,
      "NORMAL": 1
     },
     "indices": 2,
     "material": 1
    }
   ]
  },
  {
   "name": "Port2",
   "primitives": [
    {
     "attributes": {
      "POSITION": 0,
      "NORMAL": 1
     },
     "indices": 2,
     "material": 2
    }
   ]
  }
 ],
 "accessors": [
  {
   "bufferView": 0,
   "componentType": 5126,
   "count": 24,
   "type": "VEC3",
   "min": [
    -0.5,
    -0.5,
    -0.5
   ],
   "max": [
    0.5,
    0.5,
    0.5
   ]
  },
  {
   "bufferView": 1,
   "componentType": 5126,
   "count": 24,
   "type": "VEC3"
  },
  {
   "bufferView": 2,
   "componentType": 5123,
   "count": 36,
   "type": "SCALAR"
  }
 ],
 "bufferViews": [
  {
   "buffer": 0,
   "byteOffset": 0,
   "byteLength": 288,
   "target": 34962
  },
  {
   "buffer": 0,
   "byteOffset": 288,
   "byteLength": 288,
   "target": 34962
  },
  {
   "buffer": 0,
   "byteOffset": 576,
   "byteLength": 72,
   "target": 34963
  }
 ],
 "buffers": [
  {
   "byteLength": 648,
   "uri": "data:application/octet-stream;base64,"
  }
 ]
}