{"asset": {"version": "2.0", "generator": "WFM fab cluster-tool"}, "scene": 0, "scenes": [{"nodes": [0, 1, 2, 3, 4, 5, 6, 7, 8, 9]}], "nodes": [{"name": "Body", "mesh": 0, "translation": [0, 0.35, -0.18]}, {"name": "Chamber_1", "mesh": 1, "translation": [-0.26, 0.8, -0.18]}, {"name": "Chamber_2", "mesh": 2, "translation": [0.0, 0.8, -0.18]}, {"name": "Chamber_3", "mesh": 3, "translation": [0.26, 0.8, -0.18]}, {"name": "EFEM", "mesh": 4, "translation": [0, 0.225, 0.22]}, {"name": "Port_1", "mesh": 5, "translation": [-0.31, 0.16, 0.4]}, {"name": "Port_2", "mesh": 6, "translation": [-0.105, 0.16, 0.4]}, {"name": "Port_3", "mesh": 7, "translation": [0.105, 0.16, 0.4]}, {"name": "Port_4", "mesh": 8, "translation": [0.31, 0.16, 0.4]}, {"name": "SignalTower", "mesh": 9, "translation": [0.4, 0.86, -0.4]}], "meshes": [{"name": "Body", "primitives": [{"attributes": {"POSITION": 0, "NORMAL": 1}, "indices": 2, "material": 0}]}, {"name": "Chamber_1", "primitives": [{"attributes": {"POSITION": 3, "NORMAL": 4}, "indices": 5, "material": 1}]}, {"name": "Chamber_2", "primitives": [{"attributes": {"POSITION": 6, "NORMAL": 7}, "indices": 8, "material": 2}]}, {"name": "Chamber_3", "primitives": [{"attributes": {"POSITION": 9, "NORMAL": 10}, "indices": 11, "material": 3}]}, {"name": "EFEM", "primitives": [{"attributes": {"POSITION": 12, "NORMAL": 13}, "indices": 14, "material": 4}]}, {"name": "Port_1", "primitives": [{"attributes": {"POSITION": 15, "NORMAL": 16}, "indices": 17, "material": 5}]}, {"name": "Port_2", "primitives": [{"attributes": {"POSITION": 18, "NORMAL": 19}, "indices": 20, "material": 6}]}, {"name": "Port_3", "primitives": [{"attributes": {"POSITION": 21, "NORMAL": 22}, "indices": 23, "material": 7}]}, {"name": "Port_4", "primitives": [{"attributes": {"POSITION": 24, "NORMAL": 25}, "indices": 26, "material": 8}]}, {"name": "SignalTower", "primitives": [{"attributes": {"POSITION": 27, "NORMAL": 28}, "indices": 29, "material": 9}]}], "materials": [{"name": "Body", "pbrMetallicRoughness": {"baseColorFactor": [0.78, 0.78, 0.8, 1.0], "metallicFactor": 0.1, "roughnessFactor": 0.65}}, {"name": "Chamber_1", "pbrMetallicRoughness": {"baseColorFactor": [0.55, 0.58, 0.62, 1.0], "metallicFactor": 0.1, "roughnessFactor": 0.65}}, {"name": "Chamber_2", "pbrMetallicRoughness": {"baseColorFactor": [0.55, 0.58, 0.62, 1.0], "metallicFactor": 0.1, "roughnessFactor": 0.65}}, {"name": "Chamber_3", "pbrMetallicRoughness": {"baseColorFactor": [0.55, 0.58, 0.62, 1.0], "metallicFactor": 0.1, "roughnessFactor": 0.65}}, {"name": "EFEM", "pbrMetallicRoughness": {"baseColorFactor": [0.66, 0.69, 0.74, 1.0], "metallicFactor": 0.1, "roughnessFactor": 0.65}}, {"name": "Port_1", "pbrMetallicRoughness": {"baseColorFactor": [1.0, 0.886, 0.478, 1.0], "metallicFactor": 0.1, "roughnessFactor": 0.65}}, {"name": "Port_2", "pbrMetallicRoughness": {"baseColorFactor": [1.0, 0.886, 0.478, 1.0], "metallicFactor": 0.1, "roughnessFactor": 0.65}}, {"name": "Port_3", "pbrMetallicRoughness": {"baseColorFactor": [1.0, 0.886, 0.478, 1.0], "metallicFactor": 0.1, "roughnessFactor": 0.65}}, {"name": "Port_4", "pbrMetallicRoughness": {"baseColorFactor": [1.0, 0.886, 0.478, 1.0], "metallicFactor": 0.1, "roughnessFactor": 0.65}}, {"name": "SignalTower", "pbrMetallicRoughness": {"baseColorFactor": [0.16, 0.16, 0.18, 1.0], "metallicFactor": 0.1, "roughnessFactor": 0.65}}], "accessors": [{"bufferView": 0, "componentType": 5126, "count": 24, "type": "VEC3", "min": [-0.45, -0.35, -0.3], "max": [0.45, 0.35, 0.3]}, {"bufferView": 1, "componentType": 5126, "count": 24, "type": "VEC3"}, {"bufferView": 2, "componentType": 5123, "count": 36, "type": "SCALAR"}, {"bufferView": 3, "componentType": 5126, "count": 122, "type": "VEC3", "min": [-0.13, -0.08, -0.13], "max": [0.13, 0.08, 0.13]}, {"bufferView": 4, "componentType": 5126, "count": 122, "type": "VEC3"}, {"bufferView": 5, "componentType": 5123, "count": 240, "type": "SCALAR"}, {"bufferView": 6, "componentType": 5126, "count": 122, "type": "VEC3", "min": [-0.13, -0.08, -0.13], "max": [0.13, 0.08, 0.13]}, {"bufferView": 7, "componentType": 5126, "count": 122, "type": "VEC3"}, {"bufferView": 8, "componentType": 5123, "count": 240, "type": "SCALAR"}, {"bufferView": 9, "componentType": 5126, "count": 122, "type": "VEC3", "min": [-0.13, -0.08, -0.13], "max": [0.13, 0.08, 0.13]}, {"bufferView": 10, "componentType": 5126, "count": 122, "type": "VEC3"}, {"bufferView": 11, "componentType": 5123, "count": 240, "type": "SCALAR"}, {"bufferView": 12, "componentType": 5126, "count": 24, "type": "VEC3", "min": [-0.45, -0.225, -0.12], "max": [0.45, 0.225, 0.12]}, {"bufferView": 13, "componentType": 5126, "count": 24, "type": "VEC3"}, {"bufferView": 14, "componentType": 5123, "count": 36, "type": "SCALAR"}, {"bufferView": 15, "componentType": 5126, "count": 24, "type": "VEC3", "min": [-0.0825, -0.14, -0.065], "max": [0.0825, 0.14, 0.065]}, {"bufferView": 16, "componentType": 5126, "count": 24, "type": "VEC3"}, {"bufferView": 17, "componentType": 5123, "count": 36, "type": "SCALAR"}, {"bufferView": 18, "componentType": 5126, "count": 24, "type": "VEC3", "min": [-0.0825, -0.14, -0.065], "max": [0.0825, 0.14, 0.065]}, {"bufferView": 19, "componentType": 5126, "count": 24, "type": "VEC3"}, {"bufferView": 20, "componentType": 5123, "count": 36, "type": "SCALAR"}, {"bufferView": 21, "componentType": 5126, "count": 24, "type": "VEC3", "min": [-0.0825, -0.14, -0.065], "max": [0.0825, 0.14, 0.065]}, {"bufferView": 22, "componentType": 5126, "count": 24, "type": "VEC3"}, {"bufferView": 23, "componentType": 5123, "count": 36, "type": "SCALAR"}, {"bufferView": 24, "componentType": 5126, "count": 24, "type": "VEC3", "min": [-0.0825, -0.14, -0.065], "max": [0.0825, 0.14, 0.065]}, {"bufferView": 25, "componentType": 5126, "count": 24, "type": "VEC3"}, {"bufferView": 26, "componentType": 5123, "count": 36, "type": "SCALAR"}, {"bufferView": 27, "componentType": 5126, "count": 24, "type": "VEC3", "min": [-0.025, -0.16, -0.025], "max": [0.025, 0.16, 0.025]}, {"bufferView": 28, "componentType": 5126, "count": 24, "type": "VEC3"}, {"bufferView": 29, "componentType": 5123, "count": 36, "type": "SCALAR"}], "bufferViews": [{"buffer": 0, "byteOffset": 0, "byteLength": 288, "target": 34962}, {"buffer": 0, "byteOffset": 288, "byteLength": 288, "target": 34962}, {"buffer": 0, "byteOffset": 576, "byteLength": 72, "target": 34963}, {"buffer": 0, "byteOffset": 648, "byteLength": 1464, "target": 34962}, {"buffer": 0, "byteOffset": 2112, "byteLength": 1464, "target": 34962}, {"buffer": 0, "byteOffset": 3576, "byteLength": 480, "target": 34963}, {"buffer": 0, "byteOffset": 4056, "byteLength": 1464, "target": 34962}, {"buffer": 0, "byteOffset": 5520, "byteLength": 1464, "target": 34962}, {"buffer": 0, "byteOffset": 6984, "byteLength": 480, "target": 34963}, {"buffer": 0, "byteOffset": 7464, "byteLength": 1464, "target": 34962}, {"buffer": 0, "byteOffset": 8928, "byteLength": 1464, "target": 34962}, {"buffer": 0, "byteOffset": 10392, "byteLength": 480, "target": 34963}, {"buffer": 0, "byteOffset": 10872, "byteLength": 288, "target": 34962}, {"buffer": 0, "byteOffset": 11160, "byteLength": 288, "target": 34962}, {"buffer": 0, "byteOffset": 11448, "byteLength": 72, "target": 34963}, {"buffer": 0, "byteOffset": 11520, "byteLength": 288, "target": 34962}, {"buffer": 0, "byteOffset": 11808, "byteLength": 288, "target": 34962}, {"buffer": 0, "byteOffset": 12096, "byteLength": 72, "target": 34963}, {"buffer": 0, "byteOffset": 12168, "byteLength": 288, "target": 34962}, {"buffer": 0, "byteOffset": 12456, "byteLength": 288, "target": 34962}, {"buffer": 0, "byteOffset": 12744, "byteLength": 72, "target": 34963}, {"buffer": 0, "byteOffset": 12816, "byteLength": 288, "target": 34962}, {"buffer": 0, "byteOffset": 13104, "byteLength": 288, "target": 34962}, {"buffer": 0, "byteOffset": 13392, "byteLength": 72, "target": 34963}, {"buffer": 0, "byteOffset": 13464, "byteLength": 288, "target": 34962}, {"buffer": 0, "byteOffset": 13752, "byteLength": 288, "target": 34962}, {"buffer": 0, "byteOffset": 14040, "byteLength": 72, "target": 34963}, {"buffer": 0, "byteOffset": 14112, "byteLength": 288, "target": 34962}, {"buffer": 0, "byteOffset": 14400, "byteLength": 288, "target": 34962}, {"buffer": 0, "byteOffset": 14688, "byteLength": 72, "target": 34963}], "buffers": [{"byteLength": 14760, "uri": "data:application/octet-stream;base64,"}]}